<svg xmlns="http://www.w3.org/2000/svg" viewBox="0 0 512 512"><title>bch-circle-solid-default</title><path d="M256,0C114.61511,0,0,114.61511,0,256S114.61511,512,256,512,512,397.38489,512,256,397.38489,0,256,0ZM370.99432,299.28027c-3.79278,16.59241-14.46356,27.84986-29.35351,34.65094-11.35236,5.02094-23.68476,8.403-35.63709,12.62458-.61956.34-1.27917.46014-2.11865.84021,2.103,12.79254,5.06653,29.063,7.36969,42.95489l-25.72485,4.68567c-2.44293-13.41211-5.14661-29.50275-7.5495-42.695-6.85608,1.02167-13.49225,2.00324-20.788,3.10492,2.143,13.01245,5.10657,29.2829,7.40973,43.17481l-25.72485,4.6856c-2.52307-13.85186-5.34686-30.602-7.74976-43.79431-17.6297,2.984-34.8197,5.88788-52.22955,8.83185-.12329-10.65436-.1665-20.8689-.2898-31.52319l17.14991-3.12378c7.91534-1.44177,10.87262-5.16071,9.39081-13.2959-6.46813-36.75848-12.75654-73.77686-19.00489-110.57538-1.60193-8.79486-7.14032-13.01086-16.27514-12.0285-3.11823.34082-6.41634.94153-9.71436,1.54223-3.11822.34084-6.41632.94153-10.15411,1.62238-1.682-9.23456-3.06409-18.06946-4.78614-27.52393,17.6297-2.98393,34.55976-6.06767,52.18946-9.05169-1.98279-12.13294-5.06653-29.063-7.32965-42.735l25.505-4.64563c2.443,13.41211,5.22675,29.9425,7.42938,42.0354,6.816-1.24152,13.41211-2.443,20.66785-3.76453-1.98279-12.133-4.98639-28.62329-7.20947-42.07544l25.72485-4.68567c2.483,13.632,5.34686,30.60211,7.5896,42.91484,7.23608-.18219,14.25232-.32434,21.34863-.02673a73.53446,73.53446,0,0,1,28.767,7.02716c22.65143,10.86713,32.79932,52.86163,7.8786,71.93939-.39972.3-.75934.81983-1.33886,1.3797,6.15716,1.37732,12.01434,2.35492,17.592,4.29218,12.1549,4.37384,20.07342,12.92676,24.11517,25.139C372.26556,273.83337,373.449,286.56628,370.99432,299.28027Z" style="fill:#00b500"/><path d="M293.88544,205.19458c-1.06244-9.57458-7.34137-16.60889-17.77661-19.02429-15.71289-3.95294-31.08344.20971-47.134,3.13324,3.024,17.84955,5.84778,34.59979,8.67163,51.35,15.2912-2.10369,30.06263-4.56707,43.29334-11.74743C290.673,223.72577,295.06805,215.42877,293.88544,205.19458Z" style="fill:#00b500"/><path d="M300.86017,263.44147c-19.73108-4.81122-38.79938.25213-58.36786,3.8164,3.26434,19.16883,6.44855,37.89789,9.71289,57.06671,4.61731-.841,8.8349-1.38208,13.01245-2.143,15.131-2.98315,30.08222-5.70648,43.2124-14.68585,8.69355-5.89966,13.1687-13.7569,11.42621-24.57062C317.89386,272.15149,311.0755,265.897,300.86017,263.44147Z" style="fill:#00b500"/></svg>