<?xml version="1.0" encoding="UTF-8" standalone="no"?>
<svg
   xmlns:dc="http://purl.org/dc/elements/1.1/"
   xmlns:cc="http://creativecommons.org/ns#"
   xmlns:rdf="http://www.w3.org/1999/02/22-rdf-syntax-ns#"
   xmlns:svg="http://www.w3.org/2000/svg"
   xmlns="http://www.w3.org/2000/svg"
   xmlns:sodipodi="http://sodipodi.sourceforge.net/DTD/sodipodi-0.dtd"
   xmlns:inkscape="http://www.inkscape.org/namespaces/inkscape"
   version="1.0"
   width="925.000000pt"
   height="1280.000000pt"
   viewBox="0 0 925.000000 1280.000000"
   preserveAspectRatio="xMidYMid meet"
   id="svg8"
   sodipodi:docname="bitcoin.svg"
   inkscape:version="0.92.3 (2405546, 2018-03-11)">
  <defs
     id="defs12" />
  <sodipodi:namedview
     pagecolor="#ffffff"
     bordercolor="#666666"
     borderopacity="1"
     objecttolerance="10"
     gridtolerance="10"
     guidetolerance="10"
     inkscape:pageopacity="0"
     inkscape:pageshadow="2"
     inkscape:window-width="1366"
     inkscape:window-height="705"
     id="namedview10"
     showgrid="false"
     inkscape:zoom="0.13828125"
     inkscape:cx="-1918.658"
     inkscape:cy="1681.4204"
     inkscape:window-x="-8"
     inkscape:window-y="-8"
     inkscape:window-maximized="1"
     inkscape:current-layer="g863" />
  <metadata
     id="metadata2">
Created by potrace 1.15, written by Peter Selinger 2001-2017
<rdf:RDF>
  <cc:Work
     rdf:about="">
    <dc:format>image/svg+xml</dc:format>
    <dc:type
       rdf:resource="http://purl.org/dc/dcmitype/StillImage" />
    <dc:title></dc:title>
  </cc:Work>
</rdf:RDF>
</metadata>
  <g
     transform="matrix(0.07118644,0,0,-0.07118644,127.72753,1101.017)"
     id="g6"
     style="fill:#60ff05;fill-opacity:1;stroke:none">
    <path
       d="m 2380,11830 v -970 l -162,-2 c -90,-1 -625,0 -1191,2 l -1027,3 v -631 -630 l 503,-4 c 478,-4 506,-5 582,-26 126,-35 201,-76 281,-156 52,-52 81,-91 107,-146 73,-153 67,94 67,-2843 0,-1757 -3,-2662 -10,-2698 -24,-127 -111,-251 -212,-302 -96,-49 -137,-52 -628,-52 l -456,1 -113,-681 C 59,2321 6,2005 3,1992 l -5,-22 h 859 c 473,0 1009,-3 1191,-7 l 332,-6 V 978 0 h 590 590 v 972 971 l 257,-6 c 141,-4 352,-7 470,-7 h 213 V 965 0 h 590 590 v 693 c 1,588 8,1258 13,1264 1,1 74,6 162,13 1236,86 2037,331 2586,789 452,377 708,916 790,1661 17,154 18,586 1,720 -69,550 -279,957 -646,1254 -253,205 -567,354 -961,458 l -89,24 76,41 c 328,177 592,439 747,742 139,273 201,554 201,915 0,297 -32,530 -104,749 -93,284 -217,488 -425,700 -393,401 -992,651 -1871,782 -98,15 -439,55 -467,55 -10,0 -13,201 -13,970 v 970 h -590 -590 v -945 -945 h -252 c -139,0 -351,-3 -470,-7 l -218,-6 v 951 952 H 2970 2380 Z M 4860,9496 c 416,-48 667,-112 902,-231 375,-189 563,-471 584,-875 25,-482 -224,-830 -741,-1033 -271,-106 -646,-173 -1110,-197 -206,-11 -846,-13 -882,-4 l -23,6 v 1174 1173 l 78,4 c 42,2 298,3 567,2 367,-2 524,-7 625,-19 z M 4740,5970 c 678,-28 1146,-122 1503,-303 280,-142 458,-313 561,-539 136,-298 123,-695 -29,-963 -204,-357 -636,-591 -1310,-710 -407,-72 -1001,-105 -1590,-90 l -285,7 v 1299 1299 l 248,3 c 136,1 339,3 452,5 113,1 315,-3 450,-8 z"
       id="path4"
       style="fill:#60ff05;fill-opacity:1"
       inkscape:connector-curvature="0" />
    <path
       style="fill:#60ff05;fill-opacity:1"
       id="path830"
       d="m 2380,11830 v -970 l -162,-2 c -90,-1 -625,0 -1191,2 l -1027,3 v -631 -630 l 503,-4 c 478,-4 506,-5 582,-26 126,-35 201,-76 281,-156 52,-52 81,-91 107,-146 73,-153 67,94 67,-2843 0,-1757 -3,-2662 -10,-2698 -24,-127 -111,-251 -212,-302 -96,-49 -137,-52 -628,-52 l -456,1 -113,-681 C 59,2321 6,2005 3,1992 l -5,-22 h 859 c 473,0 1009,-3 1191,-7 l 332,-6 V 978 0 h 590 590 v 972 971 l 257,-6 c 141,-4 352,-7 470,-7 h 213 V 965 0 h 590 590 v 693 c 1,588 8,1258 13,1264 1,1 74,6 162,13 1236,86 2037,331 2586,789 452,377 708,916 790,1661 17,154 18,586 1,720 -69,550 -279,957 -646,1254 -253,205 -567,354 -961,458 l -89,24 76,41 c 328,177 592,439 747,742 139,273 201,554 201,915 0,297 -32,530 -104,749 -93,284 -217,488 -425,700 -393,401 -992,651 -1871,782 -98,15 -439,55 -467,55 -10,0 -13,201 -13,970 v 970 h -590 -590 v -945 -945 h -252 c -139,0 -351,-3 -470,-7 l -218,-6 v 951 952 H 2970 2380 Z M 4860,9496 c 416,-48 667,-112 902,-231 375,-189 563,-471 584,-875 25,-482 -224,-830 -741,-1033 -271,-106 -646,-173 -1110,-197 -206,-11 -846,-13 -882,-4 l -23,6 v 1174 1173 l 78,4 c 42,2 298,3 567,2 367,-2 524,-7 625,-19 z M 4740,5970 c 678,-28 1146,-122 1503,-303 280,-142 458,-313 561,-539 136,-298 123,-695 -29,-963 -204,-357 -636,-591 -1310,-710 -407,-72 -1001,-105 -1590,-90 l -285,7 v 1299 1299 l 248,3 c 136,1 339,3 452,5 113,1 315,-3 450,-8 z"
       inkscape:connector-curvature="0" />
  </g>
  <g
     style="fill:#00ffff;fill-opacity:1;stroke:none"
     id="g863"
     transform="matrix(0.06200786,0,0,-0.06704173,176.31795,1071.1763)">
    <path
       inkscape:connector-curvature="0"
       d="m 2029.8844,11913.55 v -996.414 l -175.1074,-2.055 c -97.2819,-1.027 -675.5685,0 -1287.36336,2.055 l -1110.09403,3.081 v -648.182 -647.1559 l 543.6975131,-4.1089 c 516.6747669,-4.109 546.9401869,-5.1362 629.0892769,-26.708 136.19459,-35.9531 217.26284,-78.0696 303.73556,-160.2481 56.20743,-53.416 87.55374,-93.478 115.65744,-149.9757 78.9063,-157.1664 72.4208,96.5597 72.4208,-2920.4178 0,-1804.8449 -3.2428,-2734.4889 -10.809,-2771.4693 -25.9418,-130.4583 -119.98096,-257.8349 -229.15292,-310.2237 -103.76724,-50.3343 -148.08452,-53.416 -678.81114,-53.416 l -492.89469,1.0272 -122.14278,-699.5443 c -67.0164,-384.1844 -124.3046,-708.7894 -127.54734,-722.1434 l -5.40455,-22.5991 H 383.659 c 511.27017,0 1090.6378,-3.0817 1287.3632,-7.1906 l 358.8622,-6.1634 V 766.03878 -238.59311 h 637.7365 637.7367 v 998.46854 997.44137 l 277.7936,-6.1634 c 152.4083,-4.109 380.4802,-7.1906 508.0275,-7.1906 h 230.2338 V 752.68482 -238.59311 h 637.7366 637.7366 v 711.87109 c 1.0808,604.01182 8.6474,1292.25662 14.0518,1298.42002 1.081,1.0272 79.9873,6.1634 175.1074,13.354 1336.0042,88.3419 2201.8127,340.0135 2795.232,810.4853 488.5712,387.2661 765.284,940.9436 853.9185,1706.2307 18.3755,158.1936 19.4565,601.9574 1.0809,739.6063 -74.5827,564.9771 -301.5736,983.0601 -698.2675,1288.1477 -273.47,210.5824 -612.8757,363.6398 -1038.7541,470.4718 l -96.2009,24.6535 82.1491,42.1165 c 354.5383,181.8199 639.8985,450.9544 807.4395,762.2054 150.2463,280.4341 217.2628,569.086 217.2628,939.9164 0,305.0876 -34.5892,544.4324 -112.4147,769.396 -100.5245,291.7336 -234.5573,501.2885 -459.3865,719.0614 -424.7974,411.92 -1072.2621,668.728 -2022.3816,803.295 -105.9292,15.409 -474.5193,56.498 -504.7849,56.498 -10.809,0 -14.0518,206.473 -14.0518,996.414 v 996.414 h -637.7366 -637.7366 v -970.733 -970.734 h -272.3892 c -150.2465,0 -379.3992,-3.081 -508.0275,-7.19 l -235.6382,-6.164 v 976.897 977.924 H 2667.6209 2029.8844 Z M 4710.5399,9515.9926 c 449.6584,-49.3071 720.9666,-115.0499 974.9803,-237.2904 405.3411,-194.1466 608.5521,-483.8258 631.2512,-898.8271 27.0229,-495.1254 -242.1236,-852.6017 -800.954,-1061.1296 -292.9263,-108.8865 -698.2676,-177.711 -1199.8095,-202.3645 -222.6673,-11.2996 -914.4495,-13.3541 -953.3622,-4.109 l -24.8608,6.1634 v 1205.9692 1204.942 l 84.3108,4.1089 c 45.3981,2.0545 322.1112,3.0817 612.8757,2.0545 396.6939,-2.0545 566.3967,-7.1906 675.5685,-19.5174 z M 4580.8308,5893.976 c 732.8566,-28.7624 1238.7222,-125.3221 1624.607,-311.251 302.6547,-145.8668 495.0565,-321.5233 606.3903,-553.6775 147.0036,-306.1148 132.9518,-713.9255 -31.3464,-989.2234 C 6559.9761,3673.1026 6093.0233,3432.7305 5364.4902,3310.49 4924.56,3236.5294 4282.4997,3202.6308 3645.844,3218.0393 l -308.0591,7.1906 V 4559.603 5893.976 l 268.0655,3.0817 c 147.0036,1.0273 366.4284,3.0817 488.571,5.1362 122.1429,1.0272 340.4866,-3.0817 486.4094,-8.2179 z"
       id="path861"
       style="fill:#ffffff;fill-opacity:1;stroke-width:1.05372846" />
  </g>
</svg>
