<svg id="EXPANDED" xmlns="http://www.w3.org/2000/svg" viewBox="0 0 199 199"><defs><style>.cls-1{fill:#044e97}.cls-2{fill:#fff}</style></defs><g id="Features_wallet" data-name="Features wallet"><g id="Crypto"><g id="Cryptocurrencies"><circle class="cls-1" cx="131.588" cy="69.919" r="35.272"/><path class="cls-1" d="M131.588 106.24a36.32 36.32 0 1136.32-36.321 36.361 36.361 0 01-36.32 36.32zm0-70.545a34.224 34.224 0 1034.225 34.224 34.262 34.262 0 00-34.225-34.224z"/><circle class="cls-2" cx="125.219" cy="69.919" r="35.272"/><path d="M125.219 106.191A36.272 36.272 0 11161.49 69.92a36.313 36.313 0 01-36.272 36.272zm0-70.544A34.272 34.272 0 10159.49 69.92a34.311 34.311 0 00-34.272-34.272z"/><circle class="cls-1" cx="73.781" cy="98.371" r="35.272"/><path class="cls-1" d="M73.781 134.691a36.32 36.32 0 1136.32-36.32 36.361 36.361 0 01-36.32 36.32zm0-70.545a34.225 34.225 0 1034.225 34.225A34.263 34.263 0 0073.78 64.146z"/><circle class="cls-2" cx="68.402" cy="98.371" r="35.272"/><path class="cls-2" d="M41.108 74.87a35.266 35.266 0 11-6.988 35.18"/><path d="M67.412 134.644a36.322 36.322 0 01-34.236-24.262 1 1 0 111.886-.662 34.283 34.283 0 106.791-34.183 1 1 0 01-1.49-1.332 36.272 36.272 0 1127.05 60.439z"/><path class="cls-2" d="M32.14 98.371a35.183 35.183 0 012.408-12.835"/><path d="M32.14 99.371a1 1 0 01-1-1 36.106 36.106 0 012.476-13.2 1 1 0 111.863.73 34.105 34.105 0 00-2.34 12.47 1 1 0 01-1 1z"/><path class="cls-1" d="M136.296 68.928l-10.334-16.653-9.677 16.591 9.203 4.679 10.808-4.617z"/><path class="cls-1" d="M135.744 72.168l-10.323 4.382-8.9-4.74 9.441 13.728 9.782-13.37z"/><g id="dash-icon-solid-default"><path class="cls-1" d="M66.63 98.53c.354-1.473.47-2.069.47-2.069H55.944c-2.854 0-3.263 1.86-3.533 2.984a56.445 56.445 0 00-.47 2.068h11.156c2.854 0 3.263-1.86 3.533-2.984z"/><path class="cls-1" d="M71.541 86.852H60.645l-.903 5.047 9.832.012c4.843 0 6.274 1.758 6.234 4.676a21.02 21.02 0 01-.95 4.842c-.746 2.184-2.278 4.676-8.026 4.666l-9.557-.004-.905 5.05h10.872c3.834 0 5.466-.447 7.192-1.245 3.828-1.768 6.106-5.546 7.019-10.477 1.359-7.343-.334-12.567-9.912-12.567z"/></g><circle class="cls-1" cx="117.136" cy="129.081" r="35.272"/><path class="cls-1" d="M117.136 165.4a36.32 36.32 0 1136.32-36.319 36.36 36.36 0 01-36.32 36.32zm0-70.544a34.224 34.224 0 1034.224 34.225 34.262 34.262 0 00-34.224-34.225z"/><circle class="cls-2" cx="110.767" cy="129.081" r="35.272"/><path d="M110.768 165.353a36.272 36.272 0 1136.271-36.272 36.313 36.313 0 01-36.271 36.272zm0-70.544a34.272 34.272 0 1034.271 34.272 34.312 34.312 0 00-34.271-34.272z"/><path class="cls-1" d="M119.548 127.59a6.632 6.632 0 002.793-5.647c0-5.174-7.23-6.069-7.23-6.069h-1.194v-5.67h-3.73v5.67h-2.537v-5.67h-3.73v5.67h-6.384l.1 3.714h4.185v18.372H97.8l-.63 3.88h6.748v6.118h3.731v-6.118h2.537v6.118h3.73v-6.118h.133c6.931 0 10.313-2.852 10.313-7.893s-4.815-6.357-4.815-6.357zm-7.496-8.002c.622 0 4.054.614 4.054 3.747s-4.054 3.582-4.054 3.582h-4.402v-7.329zm.406 18.372h-4.808v-7.66h4.402c1.915 0 5.546 1.094 5.546 4.277s-5.14 3.383-5.14 3.383z"/></g></g></g></svg>