<svg xmlns="http://www.w3.org/2000/svg" width="90" height="90"><path d="M24 42c1.573 0 3.728 0 4.726-1.385.545-.755.62-1.742.223-2.932C28.014 34.878 28 31.038 28 31a1 1 0 0 0-2 0c0 .17.012 4.198 1.052 7.316.102.307.244.861.051 1.129C26.704 40 24.945 40 24 40a1 1 0 1 0 0 2zM20.553 26.895a1.003 1.003 0 0 0 1.342-.448 1 1 0 0 0-.447-1.342c-2.308-1.154-8.637-2.18-12.002.062a1 1 0 1 0 1.11 1.664c2.631-1.753 8.236-.818 9.997.064zM33.001 27c.15 0 .303-.034.446-.105 1.762-.881 7.363-1.818 9.998-.062a1 1 0 0 0 1.11-1.664c-3.361-2.241-9.691-1.217-12.002-.062A1 1 0 0 0 33.001 27z"/><path d="M88.098 64.594c.284-1.778-.059-3.553-.454-5.575-.529-2.705-1.188-6.071-.649-10.909 1.461-13.147 1.796-22.653.996-28.252-.896-6.275-3.485-13.613-15.608-14.827C67.84 1.66 60.167 2.892 57.611 3.428c-.193-.65-.42-1.282-.716-1.875a1.249 1.249 0 0 0-.81-.661c-.753-.193-1.435.274-2.671 1.125C51.1 3.609 47.23 6.275 42.242 5.03c-2.319-.58-4.772-1.345-7.145-2.085C29.035 1.054 23.308-.734 18.835.014c-5.5.917-9.245 1.919-9.772 6.746-1.843-.269-4.142.044-5.981 1.37C1.676 9.143 0 11.157 0 15c0 4.342 1.465 10.78 2.642 15.954.229 1.003.444 1.952.635 2.823a5.014 5.014 0 0 0-2.485 4.324c0 2.227 1.492 4.167 3.594 4.793C5.257 48.393 8.444 59.035 20 62.13v1.23c-2.577 1.19-12.676 5.859-14.447 6.745C1.816 71.974 0 77.5 0 87v2a1 1 0 1 0 2 0v-2c0-5.876.771-13.268 4.447-15.105.938-.469 4.368-2.071 7.708-3.623C14.616 71.892 16 83.257 16 89a1 1 0 1 0 2 0c0-6.333-1.583-18.866-1.94-21.612l2.012-.932c.253 2.041 1.041 3.781 2.332 5.08C22.008 73.148 24.288 74 27 74s4.992-.852 6.597-2.464c1.292-1.299 2.079-3.039 2.332-5.08l2.012.932C37.583 70.134 36 82.667 36 89a1 1 0 1 0 2 0c0-5.743 1.384-17.108 1.844-20.729 3.341 1.552 6.771 3.154 7.708 3.623C52.055 74.146 53 81.352 53 87v2a1 1 0 1 0 2 0v-2c0-9.036-2.205-14.72-6.553-16.895-.355-.178-1.055-.512-1.952-.935.974-4.31 6.363-6.086 9.33-7.06l.108-.036c.217.658.586 1.363 1.167 2.108A17.426 17.426 0 0 0 55 72.5c0 5.475 2.518 10.36 6.455 13.569l-.443 2.773a1 1 0 0 0 1.975.316l.288-1.806A17.4 17.4 0 0 0 72.5 90C82.165 90 90 82.165 90 72.5c0-2.848-.695-5.529-1.902-7.906zM71.375 6.781a.998.998 0 0 0 .534.215c10.912.992 13.252 7.202 14.101 13.146.378 2.646.49 6.225.34 10.693a9.277 9.277 0 0 1-1.936-.739c-.012-.006-.023-.014-.036-.019-4.701-2.414-8.709-8.562-9.718-10.207 1.638-1.639 2.129-3.368 2.218-4.617.128-1.799-.496-3.285-1.171-3.959a.999.999 0 1 0-1.414 1.414c.231.232.681 1.124.59 2.403-.076 1.074-.569 2.654-2.482 4.09-1.67 1.251-4.883 2.401-8.603 3.733-4.387 1.57-9.755 3.504-14.977 6.406-.136-2.121-.331-4.201-.612-5.62 2.823-.965 5.773-3.892 7.75-7.774 1.813-3.56 2.496-7.277 2.059-10.556 2.337-.484 9.553-1.653 13.357 1.391zM70 55a.997.997 0 0 0-.718.308A17.38 17.38 0 0 0 63 57.816V56a.982.982 0 0 0-.076-.376c-.017-.042-.048-.075-.07-.113-.04-.069-.078-.139-.133-.197-.035-.037-.08-.061-.121-.093-.058-.045-.113-.09-.181-.122-.049-.023-.103-.031-.156-.046-.055-.016-.105-.042-.165-.048-9.165-.917-11.079-8.051-12.223-12.314l-.049-.191a.994.994 0 0 0-.782-.715c.208-2.383.094-4.025.081-4.177a183.51 183.51 0 0 0-.181-6.04c2.235-1.296 4.517-2.403 6.755-3.371a.976.976 0 0 0 .308.054c1.266-.024 2.676.201 4.75.719a1 1 0 0 0 .484-1.94 38.16 38.16 0 0 0-1.722-.391 219.598 219.598 0 0 1 4.952-1.822c3.704-1.326 6.68-2.399 8.623-3.675a42.967 42.967 0 0 0 3.774 5.157c-1.734-.144-3.547.09-6.111.731a1 1 0 1 0 .485 1.94c3.572-.892 5.409-.94 7.86-.206.045.014.089.005.134.013 1.158 1.084 2.42 2.08 3.764 2.837V41c0 5.507-5.582 14-13 14zM2 15c0-2.406.758-4.171 2.252-5.248C5.328 8.976 6.646 8.67 7.828 8.67c.688 0 1.332.104 1.855.278A1.002 1.002 0 0 0 11 8c0-4.011 1.938-4.976 8.164-6.014 4.011-.667 9.767 1.129 15.338 2.868 2.399.749 4.88 1.522 7.256 2.116 5.852 1.462 10.367-1.639 12.79-3.306.276-.19.591-.407.85-.571 1.358 3.337.921 7.74-1.221 11.944-1.914 3.76-4.865 6.563-7.341 6.976a1.001 1.001 0 0 0-.38.147l-.344.001c-10.659 0-18.086-4.573-23.021-7.611-2-1.231-3.58-2.204-4.85-2.521-3.999-.999-7.02 2.167-9.686 4.959-.423.443-.844.883-1.264 1.304-1.438 1.437-2.244 2.889-2.7 4.856-.224.966-.39 2.943-.533 5.009C3.039 23.592 2 18.501 2 15zm4.281 27.055a.997.997 0 0 0-.675-.801.98.98 0 0 0-.406-.196A3.028 3.028 0 0 1 2.791 38.1c0-1.069.573-2.044 1.487-2.588.134.029.247.029.296.025 1.015-.073 1.027-.269 1.351-5.273.16-2.472.358-5.549.617-6.664.369-1.597.996-2.725 2.165-3.893.431-.431.862-.882 1.296-1.337 2.514-2.632 4.886-5.115 7.755-4.4.969.242 2.433 1.144 4.285 2.284 5.127 3.157 12.844 7.908 24.064 7.908h.155c.616 3.136.832 10.592.865 13.533.009.108.761 10.922-5.551 17.738C38.156 59.127 33.252 61 27 61 11.282 61 7.272 49.13 6.281 42.055zm25.898 28.07C30.958 71.352 29.168 72 27 72s-3.958-.648-5.179-1.875c-1.1-1.106-1.723-2.675-1.827-4.559l1.425-.658A1 1 0 0 0 22 64v-1.426c1.534.272 3.192.426 5 .426 1.765 0 3.429-.145 5-.423V64a1 1 0 0 0 .581.908l1.425.658c-.104 1.884-.728 3.453-1.827 4.559zM34 63.36v-1.223c3.616-.97 6.644-2.754 9.044-5.346.444-.48.855-.976 1.238-1.484.249 2.197.864 3.345 1.466 4.461.121.223.241.446.357.679.701 1.403.115 3.685-.235 5.048l-.115.459c-.478.7-.857 1.48-1.103 2.351A2811.34 2811.34 0 0 0 34 63.36zm14.343.012c.159-1.274.135-2.651-.449-3.82a26.472 26.472 0 0 0-.386-.734c-.743-1.377-1.443-2.685-1.329-6.548 1.202-2.341 1.929-4.767 2.364-6.956 1.189 3.869 3.484 8.913 9.668 10.912-1.099.737-2.002 1.776-2.365 3.058a4.576 4.576 0 0 0-.147.764c-.006.002-.011 0-.017.002l-.481.159c-1.764.58-4.547 1.502-6.858 3.163zm9.428-3.541c.392-1.384 1.904-2.336 3.229-2.681v.499c-.349.525-.474 1.198-.381 2.027a17.585 17.585 0 0 0-2.348 2.661c-.531-.881-.72-1.728-.5-2.506zM82.155 74.31H74.31v7.845c0 .996-.815 1.81-1.81 1.81s-1.81-.815-1.81-1.81V74.31h-7.845c-.996 0-1.81-.815-1.81-1.81s.815-1.81 1.81-1.81h7.845v-7.845c0-.996.815-1.81 1.81-1.81s1.81.815 1.81 1.81v7.845h7.845c.996 0 1.81.815 1.81 1.81s-.814 1.81-1.81 1.81zm-6.102-18.948C81.469 52.36 85 45.818 85 41v-8.489c.418.147.841.263 1.268.352-.206 4.285-.626 9.3-1.262 15.026-.571 5.142.12 8.675.675 11.514.141.722.27 1.39.366 2.022a17.501 17.501 0 0 0-9.994-6.063z"/><path d="M64 43c1.755 0 2.805-.344 3.405-1.115.792-1.016.456-2.349.102-3.759C67.27 37.184 67 36.115 67 35a1 1 0 1 0-2 0c0 1.363.314 2.611.567 3.615.201.8.452 1.796.261 2.041-.045.057-.344.344-1.828.344a1 1 0 1 0 0 2zM72.257 46.331C70.798 47.953 68.146 49 65.5 49c-3.221 0-5.352-.828-6.704-2.605a.999.999 0 1 0-1.591 1.211C58.942 49.89 61.656 51 65.5 51c3.236 0 6.396-1.276 8.243-3.331a1 1 0 0 0-1.486-1.338z"/><circle cx="75" cy="33" r="2"/><circle cx="56" cy="33" r="2"/><circle cx="38" cy="32" r="2"/><circle cx="15" cy="32" r="2"/><path d="M34.669 48.256a1 1 0 0 0-1.412.075C31.798 49.953 29.146 51 26.5 51c-3.221 0-5.352-.828-6.704-2.605a1 1 0 0 0-1.591 1.211C19.942 51.89 22.656 53 26.5 53c3.236 0 6.396-1.276 8.243-3.331a1 1 0 0 0-.074-1.413z"/></svg>