<svg xmlns="http://www.w3.org/2000/svg" width="17" height="20" fill="none" viewBox="0 0 17 20">
    <path fill="#E68802" fill-rule="evenodd" d="M3.616 2.223l-.013-.003c-.018.017-.03.028-.03.03.002 0 .014-.007.043-.027zm.11.027l-.11-.027.147-.102-.038.13zm0 0c.252.061.504.114.756.168.293.062.586.123.879.198.293.074.585.136.878.198.293.062.586.123.879.198.16.05.213 0 .266-.149.107-.42.213-.829.32-1.237.106-.408.213-.817.32-1.237C8.076.24 8.13.19 8.29.24 8.822.39 9.3.488 9.834.587c.16.05.16.099.106.198-.106.396-.213.804-.32 1.212-.106.408-.212.817-.319 1.213 0 .05 0 .099-.053.198.213.049.44.099.666.148.226.05.452.099.665.148.036 0 .071-.044.107-.088.018-.022.035-.044.053-.06.16-.643.32-1.237.533-1.88l.16-.594c0-.1.053-.149.16-.1.302.085.605.154.918.224.237.054.48.109.732.172.027 0 .04.013.053.025.014.013.027.025.053.025-.16.643-.319 1.237-.479 1.831-.053.248-.106.495-.213.742-.053.149 0 .198.16.248l1.757.742c.533.297 1.012.693 1.385 1.188.48.742.532 1.534.32 2.326-.16.544-.373 1.04-.8 1.435-.319.297-.745.495-1.171.644-.022 0-.044.008-.07.018-.037.014-.08.03-.143.03.107.075.213.137.32.199.106.062.213.124.32.198.638.445 1.064.99 1.277 1.682.107.545.053 1.139-.106 1.683-.213.693-.48 1.287-.959 1.831-.586.644-1.331.99-2.183 1.089-1.119.148-2.184.05-3.249-.099-.16-.05-.266 0-.32.148-.106.396-.212.805-.319 1.213-.106.408-.213.816-.32 1.212-.001.009-.004.017-.006.025-.047.177-.058.219-.313.124-.24-.05-.492-.111-.745-.173-.253-.062-.506-.124-.746-.174-.16-.049-.16-.099-.106-.198.213-.84.426-1.682.692-2.474 0-.028.004-.051.008-.072.01-.055.016-.09-.061-.126-.426-.099-.852-.198-1.332-.297-.053.223-.12.446-.186.668-.066.223-.133.446-.186.668-.054.223-.12.446-.187.668-.066.223-.133.446-.186.669l-.017.033c-.039.076-.055.11-.196.066-.533-.149-1.065-.248-1.598-.347-.16-.05-.16-.099-.106-.198.213-.841.426-1.682.692-2.474 0-.02.01-.041.02-.065.015-.034.033-.075.033-.133-1.225-.297-2.45-.594-3.727-.891.053-.099.093-.186.133-.272.04-.087.08-.173.133-.272.213-.446.426-.891.586-1.287.053-.149.106-.149.266-.149.373.1.799.198 1.172.248.426.099.745-.1.798-.446.693-2.524 1.385-5.047 2.024-7.62.106-.397-.16-.842-.64-.99-.384-.12-.77-.207-1.127-.288l-.257-.06c-.106 0-.16-.049-.106-.148.08-.272.16-.556.24-.84.067-.24.134-.48.201-.713zm6.852 7.854c.106 0 .37-.059.582-.118 1.004-.236 1.533-1.533 1.004-2.535-.264-.53-.74-.884-1.216-1.12-.593-.283-1.186-.453-1.806-.63l-.467-.136c-.158-.059-.211 0-.264.177-.264 1.238-.529 2.417-.846 3.655-.053.118 0 .176.106.235.106.03.198.06.29.089.093.03.186.059.291.088.218.033.428.07.635.106.548.096 1.078.189 1.691.189zM6.74 14.819c.045 0 .09.052.09.052l.342.102c.62.185 1.267.379 1.914.423.542.053 1.038.053 1.535-.157.857-.315 1.218-1.627.722-2.466-.226-.42-.587-.682-.948-.945-.788-.509-1.704-.722-2.583-.926l-.08-.018c-.123-.048-.134-.009-.169.118l-.011.04c-.045.262-.102.51-.158.76-.056.25-.113.498-.158.76-.103.42-.191.838-.281 1.266-.068.324-.138.652-.215.991z" clip-rule="evenodd"/>
</svg>
